<svg width="13" height="20" viewBox="0 0 13 20" fill="none" xmlns="http://www.w3.org/2000/svg">
<g clip-path="url(#clip0_188_614)">
<path d="M5.81197 12.5177C4.0717 12.5177 2.37764 12.5177 0.684629 12.5177C-0.0200912 12.5177 -0.168177 12.2646 0.181558 11.6534C2.31462 7.93023 4.44769 4.20708 6.58181 0.483925C6.62067 0.415658 6.66268 0.349492 6.70049 0.280175C6.82337 0.0543704 7.03132 -0.0811125 7.24767 0.0522699C7.38735 0.139441 7.51758 0.386251 7.50393 0.550091C7.45037 1.22645 7.33904 1.89862 7.25082 2.57288C7.03762 4.19237 6.82547 5.81187 6.60491 7.49122C6.76875 7.49122 6.90634 7.49122 7.04287 7.49122C8.65921 7.49122 10.2745 7.49017 11.8908 7.49122C12.5126 7.49227 12.6754 7.76324 12.3708 8.30307C10.2461 12.0766 8.11833 15.8481 5.99472 19.6217C5.85608 19.8685 5.69959 20.0817 5.38242 19.9683C5.08835 19.8632 5.09675 19.6133 5.1251 19.3465C5.35511 17.1746 5.57566 15.0026 5.79727 12.8297C5.80567 12.7404 5.80567 12.6501 5.81197 12.5177Z" fill="#777777"/>
</g>
<defs>
<clipPath id="clip0_188_614">
<rect width="12.5201" height="20" fill="white"/>
</clipPath>
</defs>
</svg>
