<svg width="24" height="24" viewBox="0 0 24 24" fill="none" xmlns="http://www.w3.org/2000/svg">
<path d="M10.146 3.24805C10.2954 2.87876 10.5517 2.5625 10.882 2.33982C11.2123 2.11714 11.6016 1.99817 12 1.99817C12.3984 1.99817 12.7877 2.11714 13.118 2.33982C13.4483 2.5625 13.7046 2.87876 13.854 3.24805C15.3328 3.65473 16.6371 4.5356 17.5668 5.75538C18.4964 6.97516 18.9999 8.46639 19 10V14.697L20.832 17.445C20.9325 17.5956 20.9902 17.7707 20.999 17.9515C21.0078 18.1324 20.9673 18.3122 20.8819 18.4718C20.7965 18.6314 20.6693 18.7649 20.514 18.8579C20.3587 18.951 20.181 19.0001 20 19H15.465C15.3446 19.8331 14.9281 20.595 14.2917 21.146C13.6553 21.697 12.8418 22.0003 12 22.0003C11.1582 22.0003 10.3447 21.697 9.7083 21.146C9.07193 20.595 8.6554 19.8331 8.535 19H4C3.81895 19.0001 3.6413 18.951 3.48599 18.8579C3.33068 18.7649 3.20353 18.6314 3.11812 18.4718C3.03271 18.3122 2.99224 18.1324 3.00103 17.9515C3.00981 17.7707 3.06752 17.5956 3.168 17.445L5 14.697V10C5 6.77605 7.18 4.06005 10.146 3.24805ZM10.586 19C10.6893 19.2927 10.8808 19.5461 11.1341 19.7254C11.3875 19.9046 11.6902 20.0009 12.0005 20.0009C12.3108 20.0009 12.6135 19.9046 12.8669 19.7254C13.1202 19.5461 13.3117 19.2927 13.415 19H10.585H10.586ZM12 5.00005C10.6739 5.00005 9.40215 5.52683 8.46446 6.46451C7.52678 7.40219 7 8.67396 7 10V15C7.00004 15.1976 6.94158 15.3907 6.832 15.555L5.869 17H18.13L17.167 15.555C17.0578 15.3906 16.9997 15.1975 17 15V10C17 8.67396 16.4732 7.40219 15.5355 6.46451C14.5978 5.52683 13.3261 5.00005 12 5.00005Z" fill="#777777"/>
</svg>
