<svg width="21" height="22" viewBox="0 0 21 22" fill="none" xmlns="http://www.w3.org/2000/svg">
<path d="M18.9 11.66C18.7397 11.4775 18.6513 11.2429 18.6513 11C18.6513 10.7571 18.7397 10.5225 18.9 10.34L20.18 8.90002C20.321 8.74269 20.4086 8.54472 20.4302 8.33452C20.4517 8.12433 20.4062 7.9127 20.3 7.73002L18.3 4.27002C18.1949 4.08754 18.0349 3.94289 17.8427 3.8567C17.6506 3.77051 17.4362 3.74718 17.23 3.79002L15.35 4.17002C15.1108 4.21945 14.8617 4.17961 14.6499 4.05802C14.438 3.93643 14.278 3.7415 14.2 3.51002L13.59 1.68002C13.5229 1.4814 13.3951 1.30888 13.2246 1.18686C13.0541 1.06484 12.8496 0.999476 12.64 1.00002H8.63999C8.42192 0.988635 8.20612 1.04894 8.02555 1.17173C7.84498 1.29452 7.70957 1.47304 7.63999 1.68002L7.07999 3.51002C7.00199 3.7415 6.84196 3.93643 6.6301 4.05802C6.41824 4.17961 6.1692 4.21945 5.92999 4.17002L3.99999 3.79002C3.80454 3.7624 3.60529 3.79324 3.42734 3.87866C3.24938 3.96407 3.10069 4.10025 2.99999 4.27002L0.999988 7.73002C0.891148 7.91067 0.84221 8.1211 0.86017 8.33124C0.878131 8.54138 0.96207 8.74046 1.09999 8.90002L2.36999 10.34C2.53031 10.5225 2.61872 10.7571 2.61872 11C2.61872 11.2429 2.53031 11.4775 2.36999 11.66L1.09999 13.1C0.96207 13.2596 0.878131 13.4587 0.86017 13.6688C0.84221 13.8789 0.891148 14.0894 0.999988 14.27L2.99999 17.73C3.10509 17.9125 3.26511 18.0571 3.45724 18.1433C3.64937 18.2295 3.86381 18.2529 4.06999 18.21L5.94999 17.83C6.1892 17.7806 6.43824 17.8204 6.6501 17.942C6.86196 18.0636 7.02199 18.2585 7.09999 18.49L7.70999 20.32C7.77957 20.527 7.91498 20.7055 8.09555 20.8283C8.27612 20.9511 8.49192 21.0114 8.70999 21H12.71C12.9196 21.0006 13.1241 20.9352 13.2946 20.8132C13.4651 20.6912 13.5929 20.5186 13.66 20.32L14.27 18.49C14.348 18.2585 14.508 18.0636 14.7199 17.942C14.9317 17.8204 15.1808 17.7806 15.42 17.83L17.3 18.21C17.5062 18.2529 17.7206 18.2295 17.9127 18.1433C18.1049 18.0571 18.2649 17.9125 18.37 17.73L20.37 14.27C20.4762 14.0873 20.5217 13.8757 20.5002 13.6655C20.4786 13.4553 20.391 13.2573 20.25 13.1L18.9 11.66ZM17.41 13L18.21 13.9L16.93 16.12L15.75 15.88C15.0298 15.7328 14.2806 15.8551 13.6446 16.2238C13.0086 16.5925 12.5301 17.1819 12.3 17.88L11.92 19H9.35999L8.99999 17.86C8.76984 17.1619 8.29137 16.5725 7.65539 16.2038C7.01942 15.8351 6.27021 15.7128 5.54999 15.86L4.36999 16.1L3.06999 13.89L3.86999 12.99C4.36194 12.44 4.63392 11.7279 4.63392 10.99C4.63392 10.2521 4.36194 9.54004 3.86999 8.99002L3.06999 8.09002L4.34999 5.89002L5.52999 6.13002C6.25021 6.27724 6.99942 6.1549 7.63539 5.78622C8.27137 5.41753 8.74984 4.82818 8.97999 4.13002L9.35999 3.00002H11.92L12.3 4.14002C12.5301 4.83818 13.0086 5.42753 13.6446 5.79622C14.2806 6.1649 15.0298 6.28724 15.75 6.14002L16.93 5.90002L18.21 8.12002L17.41 9.02002C16.9236 9.56878 16.655 10.2767 16.655 11.01C16.655 11.7433 16.9236 12.4513 17.41 13ZM10.64 7.00002C9.84886 7.00002 9.0755 7.23461 8.41771 7.67414C7.75991 8.11366 7.24722 8.73838 6.94447 9.46928C6.64172 10.2002 6.56251 11.0045 6.71685 11.7804C6.87119 12.5563 7.25215 13.269 7.81156 13.8284C8.37097 14.3879 9.0837 14.7688 9.85963 14.9232C10.6356 15.0775 11.4398 14.9983 12.1707 14.6955C12.9016 14.3928 13.5263 13.8801 13.9659 13.2223C14.4054 12.5645 14.64 11.7911 14.64 11C14.64 9.93915 14.2186 8.92174 13.4684 8.17159C12.7183 7.42144 11.7009 7.00002 10.64 7.00002ZM10.64 13C10.2444 13 9.85775 12.8827 9.52885 12.663C9.19995 12.4432 8.9436 12.1308 8.79223 11.7654C8.64085 11.3999 8.60125 10.9978 8.67842 10.6098C8.75559 10.2219 8.94607 9.86551 9.22577 9.5858C9.50548 9.3061 9.86185 9.11562 10.2498 9.03845C10.6378 8.96128 11.0399 9.00088 11.4054 9.15226C11.7708 9.30363 12.0832 9.55998 12.3029 9.88888C12.5227 10.2178 12.64 10.6045 12.64 11C12.64 11.5304 12.4293 12.0392 12.0542 12.4142C11.6791 12.7893 11.1704 13 10.64 13Z" fill="#777777"/>
</svg>
