<svg width="26" height="26" viewBox="0 0 26 26" fill="none" xmlns="http://www.w3.org/2000/svg">
<path d="M25.6133 5.34854C24.7087 5.74937 23.737 6.02021 22.7154 6.14262C23.7695 5.5119 24.5581 4.51921 24.9341 3.34979C23.9437 3.93803 22.8598 4.35209 21.7296 4.57396C20.9695 3.76239 19.9627 3.22448 18.8656 3.04372C17.7684 2.86296 16.6423 3.04948 15.6621 3.57431C14.6818 4.09915 13.9022 4.93293 13.4444 5.94622C12.9865 6.95951 12.8761 8.0956 13.1301 9.17812C11.1234 9.07737 9.16032 8.5558 7.36826 7.64727C5.57621 6.73874 3.99521 5.46355 2.72789 3.90446C2.29455 4.65196 2.04539 5.51862 2.04539 6.44162C2.0449 7.27254 2.24952 8.09072 2.64109 8.82359C3.03266 9.55645 3.59906 10.1813 4.29005 10.6428C3.48869 10.6173 2.705 10.4008 2.00422 10.0112V10.0762C2.00414 11.2416 2.40726 12.3711 3.14517 13.2731C3.88308 14.1751 4.91034 14.7941 6.05264 15.0249C5.30924 15.2261 4.52984 15.2557 3.7733 15.1115C4.09559 16.1143 4.72338 16.9912 5.56878 17.6194C6.41419 18.2476 7.43488 18.5957 8.48797 18.615C6.70029 20.0184 4.49251 20.7796 2.2198 20.7763C1.81722 20.7764 1.41497 20.7529 1.01514 20.7059C3.32207 22.1891 6.00751 22.9763 8.75014 22.9733C18.0343 22.9733 23.1097 15.2838 23.1097 8.61479C23.1097 8.39812 23.1043 8.17929 23.0946 7.96262C24.0818 7.24868 24.934 6.36459 25.6111 5.35179L25.6133 5.34854Z" fill="#1C9CEA"/>
</svg>
