<svg width="26" height="26" viewBox="0 0 26 26" fill="none" xmlns="http://www.w3.org/2000/svg">
<path fill-rule="evenodd" clip-rule="evenodd" d="M10.2148 9.71625H14.2383V11.7204C14.8179 10.5678 16.3042 9.53209 18.537 9.53209C22.8172 9.53209 23.8334 11.8266 23.8334 16.0364V23.8332H19.5001V16.9952C19.5001 14.5978 18.9205 13.2458 17.445 13.2458C15.3986 13.2458 14.5482 14.7028 14.5482 16.9941V23.8332H10.2148V9.71625ZM2.78425 23.649H7.11758V9.53209H2.78425V23.649ZM7.73833 4.929C7.73849 5.29222 7.66646 5.65184 7.52642 5.98697C7.38638 6.3221 7.18112 6.62606 6.92258 6.88117C6.39868 7.40185 5.68954 7.69329 4.95092 7.6915C4.21359 7.69101 3.50608 7.4003 2.98141 6.88225C2.72381 6.62628 2.51925 6.32198 2.37945 5.9868C2.23966 5.65163 2.16738 5.29216 2.16675 4.929C2.16675 4.19559 2.45925 3.49359 2.9825 2.97575C3.50671 2.45701 4.21451 2.16618 4.952 2.1665C5.69083 2.1665 6.39933 2.45792 6.92258 2.97575C7.44475 3.49359 7.73833 4.19559 7.73833 4.929Z" fill="#006097"/>
</svg>
