<svg width="14" height="14" viewBox="0 0 14 14" fill="none" xmlns="http://www.w3.org/2000/svg">
<circle cx="7" cy="7" r="7" fill="#19AC54"/>
<path d="M9.855 4.14497C9.80852 4.09811 9.75322 4.06091 9.69229 4.03552C9.63136 4.01014 9.56601 3.99707 9.5 3.99707C9.43399 3.99707 9.36864 4.01014 9.30771 4.03552C9.24678 4.06091 9.19148 4.09811 9.145 4.14497L5 8.29497V5.49997C5 5.36736 4.94732 5.24018 4.85355 5.14642C4.75979 5.05265 4.63261 4.99997 4.5 4.99997C4.36739 4.99997 4.24021 5.05265 4.14645 5.14642C4.05268 5.24018 4 5.36736 4 5.49997V9.49997C4 9.63258 4.05268 9.75976 4.14645 9.85352C4.24021 9.94729 4.36739 9.99997 4.5 9.99997H8.5C8.63261 9.99997 8.75979 9.94729 8.85355 9.85352C8.94732 9.75976 9 9.63258 9 9.49997C9 9.36736 8.94732 9.24018 8.85355 9.14642C8.75979 9.05265 8.63261 8.99997 8.5 8.99997H5.705L9.855 4.85497C9.90186 4.80849 9.93906 4.75319 9.96445 4.69226C9.98983 4.63133 10.0029 4.56598 10.0029 4.49997C10.0029 4.43396 9.98983 4.36861 9.96445 4.30768C9.93906 4.24675 9.90186 4.19145 9.855 4.14497Z" fill="white"/>
</svg>
