<svg width="14" height="14" viewBox="0 0 14 14" fill="none" xmlns="http://www.w3.org/2000/svg">
<circle cx="7" cy="7" r="7" fill="#F15A29"/>
<path d="M9.99997 4.525C9.99997 4.39239 9.94729 4.26521 9.85352 4.17145C9.75976 4.07768 9.63258 4.025 9.49997 4.025L5.49997 4C5.36736 4 5.24018 4.05268 5.14642 4.14645C5.05265 4.24021 4.99997 4.36739 4.99997 4.5C4.99997 4.63261 5.05265 4.75979 5.14642 4.85355C5.24018 4.94732 5.36736 5 5.49997 5H8.27997L4.14497 9.145C4.09811 9.19148 4.06091 9.24678 4.03552 9.30771C4.01014 9.36864 3.99707 9.43399 3.99707 9.5C3.99707 9.56601 4.01014 9.63136 4.03552 9.69229C4.06091 9.75322 4.09811 9.80852 4.14497 9.855C4.19145 9.90186 4.24675 9.93906 4.30768 9.96445C4.36861 9.98983 4.43396 10.0029 4.49997 10.0029C4.56598 10.0029 4.63133 9.98983 4.69226 9.96445C4.75319 9.93906 4.80849 9.90186 4.85497 9.855L8.99997 5.71V8.5C8.99997 8.63261 9.05265 8.75979 9.14642 8.85355C9.24018 8.94732 9.36736 9 9.49997 9C9.63258 9 9.75976 8.94732 9.85352 8.85355C9.94729 8.75979 9.99997 8.63261 9.99997 8.5V4.525Z" fill="white"/>
</svg>
